<svg width="60" height="40" viewBox="0 0 60 40" fill="none" xmlns="http://www.w3.org/2000/svg">
<path d="M11.6378 36.6667C12.352 36.6667 12.9309 35.9205 12.9309 35C12.9309 34.0795 12.352 33.3333 11.6378 33.3333C10.9237 33.3333 10.3447 34.0795 10.3447 35C10.3447 35.9205 10.9237 36.6667 11.6378 36.6667Z" stroke="white" stroke-width="2" stroke-linecap="round" stroke-linejoin="round"/>
<path d="M25.862 36.6667C26.5761 36.6667 27.1551 35.9205 27.1551 35C27.1551 34.0795 26.5761 33.3333 25.862 33.3333C25.1478 33.3333 24.5688 34.0795 24.5688 35C24.5688 35.9205 25.1478 36.6667 25.862 36.6667Z" stroke="white" stroke-width="2" stroke-linecap="round" stroke-linejoin="round"/>
<path d="M1.29297 1.66666H6.46538L9.9309 23.9833C10.0491 24.7507 10.373 25.4399 10.8458 25.9305C11.3186 26.4211 11.9102 26.6816 12.5171 26.6667H25.0861C25.6929 26.6816 26.2845 26.4211 26.7573 25.9305C27.2302 25.4399 27.554 24.7507 27.6723 23.9833L29.7412 9.99999H7.75849" stroke="white" stroke-width="2" stroke-linecap="round" stroke-linejoin="round"/>
<ellipse cx="47.0687" cy="14.2857" rx="12.931" ry="14.2857" fill="white"/>
<path d="M44.5411 18V16.9C44.5411 16.5847 44.5631 16.3097 44.6071 16.075C44.6584 15.833 44.7501 15.6203 44.8821 15.437C45.0214 15.2537 45.2194 15.074 45.4761 14.898C45.7401 14.722 46.0848 14.5387 46.5101 14.348C46.9354 14.15 47.4634 13.9227 48.0941 13.666V12.192C47.9768 12.1627 47.8374 12.1443 47.6761 12.137C47.5221 12.1223 47.3168 12.115 47.0601 12.115C46.7301 12.115 46.3708 12.1333 45.9821 12.17C45.6008 12.2067 45.2341 12.258 44.8821 12.324L44.6951 11.257C45.0471 11.1617 45.4284 11.0883 45.8391 11.037C46.2571 10.9857 46.6714 10.96 47.0821 10.96C47.9328 10.96 48.5561 11.1067 48.9521 11.4C49.3481 11.686 49.5461 12.1407 49.5461 12.764C49.5461 13.0427 49.5204 13.2883 49.4691 13.501C49.4178 13.7137 49.3224 13.908 49.1831 14.084C49.0438 14.26 48.8384 14.4323 48.5671 14.601C48.2958 14.7697 47.9364 14.9567 47.4891 15.162C47.0418 15.3673 46.4881 15.6057 45.8281 15.877V16.878H49.4251V18H44.5411Z" fill="black"/>
</svg>
