<svg width="88" height="40" viewBox="0 0 88 40" fill="none" xmlns="http://www.w3.org/2000/svg">
<path d="M19.9999 36.6663C29.2047 36.6663 36.6666 29.2044 36.6666 19.9997C36.6666 10.7949 29.2047 3.33301 19.9999 3.33301C10.7952 3.33301 3.33325 10.7949 3.33325 19.9997C3.33325 29.2044 10.7952 36.6663 19.9999 36.6663Z" stroke="#E3EBFE" stroke-width="2" stroke-linecap="round" stroke-linejoin="round"/>
<path d="M13.3333 20L19.9999 26.6667L26.6666 20" stroke="#E3EBFE" stroke-width="2" stroke-linecap="round" stroke-linejoin="round"/>
<path d="M20 13.333V26.6663" stroke="#E3EBFE" stroke-width="2" stroke-linecap="round" stroke-linejoin="round"/>
<path d="M67.9999 36.6663C77.2047 36.6663 84.6666 29.2044 84.6666 19.9997C84.6666 10.7949 77.2047 3.33301 67.9999 3.33301C58.7952 3.33301 51.3333 10.7949 51.3333 19.9997C51.3333 29.2044 58.7952 36.6663 67.9999 36.6663Z" stroke="#E3EBFE" stroke-width="2" stroke-linecap="round" stroke-linejoin="round"/>
<path d="M74.6666 19.9997L67.9999 13.333L61.3333 19.9997" stroke="#E3EBFE" stroke-width="2" stroke-linecap="round" stroke-linejoin="round"/>
<path d="M68 26.6663V13.333" stroke="#E3EBFE" stroke-width="2" stroke-linecap="round" stroke-linejoin="round"/>
</svg>
