<svg width="84" height="90" viewBox="0 0 84 90" fill="none" xmlns="http://www.w3.org/2000/svg">
<path d="M73.2624 32.967C73.2624 50.9077 59.0134 65.4341 41.4577 65.4341C23.902 65.4341 9.65308 50.9077 9.65308 32.967C9.65308 15.0264 23.902 0.5 41.4577 0.5C59.0134 0.5 73.2624 15.0264 73.2624 32.967Z" stroke="black"/>
<path d="M3.12737 85.1718C2.87137 85.1718 2.64737 85.1505 2.45537 85.1078C2.26337 85.0758 2.09271 85.0278 1.94337 84.9638V83.7478C2.11404 83.7905 2.29537 83.8278 2.48737 83.8598C2.67937 83.8918 2.88204 83.9078 3.09537 83.9078C3.36204 83.9078 3.61271 83.8545 3.84737 83.7478C4.09271 83.6412 4.29004 83.4545 4.43937 83.1878C4.58871 82.9212 4.66337 82.5478 4.66337 82.0678V70.7078H6.10337V81.9558C6.10337 82.6918 5.98071 83.2945 5.73537 83.7638C5.49004 84.2438 5.14337 84.5958 4.69537 84.8198C4.24737 85.0545 3.72471 85.1718 3.12737 85.1718ZM16.5944 73.5558V82.1318H15.4424L15.2344 80.9958H15.1704C14.989 81.2945 14.7544 81.5398 14.4664 81.7318C14.1784 81.9238 13.8637 82.0625 13.5224 82.1478C13.181 82.2438 12.8237 82.2918 12.4504 82.2918C11.7677 82.2918 11.1917 82.1852 10.7224 81.9718C10.2637 81.7478 9.91704 81.4065 9.68237 80.9478C9.44771 80.4892 9.33037 79.8972 9.33037 79.1718V73.5558H10.7544V79.0758C10.7544 79.7585 10.909 80.2705 11.2184 80.6118C11.5277 80.9532 12.0077 81.1238 12.6584 81.1238C13.2984 81.1238 13.7997 81.0065 14.1624 80.7718C14.5357 80.5265 14.797 80.1745 14.9464 79.7158C15.1064 79.2465 15.1864 78.6812 15.1864 78.0198V73.5558H16.5944ZM22.857 73.3958C23.4223 73.3958 23.929 73.5025 24.377 73.7158C24.8357 73.9292 25.225 74.2545 25.545 74.6918H25.625L25.817 73.5558H26.937V82.2758C26.937 83.0865 26.7983 83.7638 26.521 84.3078C26.2437 84.8625 25.8223 85.2785 25.257 85.5558C24.6917 85.8332 23.9717 85.9718 23.097 85.9718C22.4783 85.9718 21.9077 85.9238 21.385 85.8278C20.873 85.7425 20.4143 85.6092 20.009 85.4278V84.1318C20.2863 84.2705 20.5903 84.3878 20.921 84.4838C21.2517 84.5905 21.609 84.6705 21.993 84.7238C22.377 84.7772 22.7717 84.8038 23.177 84.8038C23.913 84.8038 24.489 84.5852 24.905 84.1478C25.3317 83.7212 25.545 83.1345 25.545 82.3878V82.0518C25.545 81.9238 25.5503 81.7425 25.561 81.5078C25.5717 81.2625 25.5823 81.0918 25.593 80.9958H25.529C25.2303 81.4332 24.857 81.7585 24.409 81.9718C23.9717 82.1852 23.4597 82.2918 22.873 82.2918C21.7637 82.2918 20.8943 81.9025 20.265 81.1238C19.6463 80.3452 19.337 79.2572 19.337 77.8598C19.337 76.9425 19.4757 76.1532 19.753 75.4918C20.041 74.8198 20.4463 74.3025 20.969 73.9398C21.4917 73.5772 22.121 73.3958 22.857 73.3958ZM23.049 74.5798C22.569 74.5798 22.1583 74.7078 21.817 74.9638C21.4863 75.2198 21.2303 75.5932 21.049 76.0838C20.8783 76.5745 20.793 77.1718 20.793 77.8758C20.793 78.9318 20.985 79.7425 21.369 80.3078C21.7637 80.8625 22.3343 81.1398 23.081 81.1398C23.5183 81.1398 23.8917 81.0865 24.201 80.9798C24.5103 80.8625 24.7663 80.6865 24.969 80.4518C25.1717 80.2065 25.321 79.8972 25.417 79.5238C25.513 79.1505 25.561 78.7078 25.561 78.1958V77.8598C25.561 77.0812 25.4703 76.4518 25.289 75.9718C25.1183 75.4918 24.8463 75.1398 24.473 74.9158C24.0997 74.6918 23.625 74.5798 23.049 74.5798ZM33.4087 73.4118C34.4541 73.4118 35.2274 73.6412 35.7287 74.0998C36.2301 74.5585 36.4807 75.2892 36.4807 76.2918V82.1318H35.4567L35.1847 80.9158H35.1207C34.8754 81.2252 34.6194 81.4865 34.3527 81.6998C34.0967 81.9025 33.7981 82.0518 33.4567 82.1478C33.1261 82.2438 32.7207 82.2918 32.2407 82.2918C31.7287 82.2918 31.2647 82.2012 30.8487 82.0198C30.4434 81.8385 30.1234 81.5612 29.8887 81.1878C29.6541 80.8038 29.5367 80.3238 29.5367 79.7478C29.5367 78.8945 29.8727 78.2385 30.5447 77.7798C31.2167 77.3105 32.2514 77.0545 33.6487 77.0118L35.1047 76.9638V76.4518C35.1047 75.7372 34.9501 75.2412 34.6407 74.9638C34.3314 74.6865 33.8941 74.5478 33.3287 74.5478C32.8807 74.5478 32.4541 74.6172 32.0487 74.7558C31.6434 74.8838 31.2647 75.0332 30.9127 75.2038L30.4807 74.1478C30.8541 73.9452 31.2967 73.7745 31.8087 73.6358C32.3207 73.4865 32.8541 73.4118 33.4087 73.4118ZM33.8247 77.9878C32.7581 78.0305 32.0167 78.2012 31.6007 78.4998C31.1954 78.7985 30.9927 79.2198 30.9927 79.7638C30.9927 80.2438 31.1367 80.5958 31.4247 80.8198C31.7234 81.0438 32.1021 81.1558 32.5607 81.1558C33.2861 81.1558 33.8887 80.9585 34.3687 80.5638C34.8487 80.1585 35.0887 79.5398 35.0887 78.7078V77.9398L33.8247 77.9878ZM42.6695 82.2918C41.6028 82.2918 40.7495 81.9238 40.1095 81.1878C39.4695 80.4412 39.1495 79.3318 39.1495 77.8598C39.1495 76.3878 39.4695 75.2785 40.1095 74.5318C40.7602 73.7745 41.6188 73.3958 42.6855 73.3958C43.1335 73.3958 43.5228 73.4545 43.8535 73.5718C44.1842 73.6785 44.4722 73.8278 44.7175 74.0198C44.9628 74.2118 45.1708 74.4252 45.3415 74.6598H45.4375C45.4268 74.5212 45.4055 74.3185 45.3735 74.0518C45.3522 73.7745 45.3415 73.5558 45.3415 73.3958V69.9718H46.7495V82.1318H45.6135L45.4055 80.9798H45.3415C45.1708 81.2252 44.9628 81.4492 44.7175 81.6518C44.4722 81.8438 44.1788 81.9985 43.8375 82.1158C43.5068 82.2332 43.1175 82.2918 42.6695 82.2918ZM42.8935 81.1238C43.8002 81.1238 44.4348 80.8785 44.7975 80.3878C45.1708 79.8865 45.3575 79.1345 45.3575 78.1318V77.8758C45.3575 76.8092 45.1815 75.9932 44.8295 75.4278C44.4775 74.8518 43.8268 74.5638 42.8775 74.5638C42.1202 74.5638 41.5495 74.8678 41.1655 75.4758C40.7922 76.0732 40.6055 76.8785 40.6055 77.8918C40.6055 78.9158 40.7922 79.7105 41.1655 80.2758C41.5495 80.8412 42.1255 81.1238 42.8935 81.1238ZM57.4292 77.8278C57.4292 78.5425 57.3332 79.1772 57.1412 79.7318C56.9599 80.2758 56.6932 80.7398 56.3412 81.1238C55.9999 81.5078 55.5786 81.8012 55.0772 82.0038C54.5866 82.1958 54.0372 82.2918 53.4292 82.2918C52.8639 82.2918 52.3412 82.1958 51.8612 82.0038C51.3812 81.8012 50.9652 81.5078 50.6132 81.1238C50.2612 80.7398 49.9839 80.2758 49.7812 79.7318C49.5892 79.1772 49.4932 78.5425 49.4932 77.8278C49.4932 76.8785 49.6532 76.0785 49.9732 75.4278C50.2932 74.7665 50.7519 74.2652 51.3492 73.9238C51.9466 73.5718 52.6559 73.3958 53.4772 73.3958C54.2559 73.3958 54.9386 73.5718 55.5252 73.9238C56.1226 74.2652 56.5866 74.7665 56.9172 75.4278C57.2586 76.0785 57.4292 76.8785 57.4292 77.8278ZM50.9492 77.8278C50.9492 78.4998 51.0346 79.0865 51.2052 79.5878C51.3866 80.0785 51.6639 80.4572 52.0372 80.7238C52.4106 80.9905 52.8852 81.1238 53.4612 81.1238C54.0372 81.1238 54.5119 80.9905 54.8852 80.7238C55.2586 80.4572 55.5306 80.0785 55.7012 79.5878C55.8826 79.0865 55.9732 78.4998 55.9732 77.8278C55.9732 77.1452 55.8826 76.5638 55.7012 76.0838C55.5199 75.6038 55.2426 75.2358 54.8692 74.9798C54.5066 74.7132 54.0319 74.5798 53.4452 74.5798C52.5706 74.5798 51.9359 74.8678 51.5412 75.4438C51.1466 76.0198 50.9492 76.8145 50.9492 77.8278ZM64.1607 73.3958C64.3207 73.3958 64.4914 73.4065 64.6727 73.4278C64.8647 73.4385 65.0301 73.4598 65.1687 73.4918L64.9927 74.7878C64.8541 74.7558 64.6994 74.7292 64.5287 74.7078C64.3687 74.6865 64.2141 74.6758 64.0647 74.6758C63.7341 74.6758 63.4194 74.7452 63.1207 74.8838C62.8221 75.0225 62.5554 75.2198 62.3207 75.4758C62.0861 75.7212 61.8994 76.0198 61.7607 76.3718C61.6327 76.7238 61.5687 77.1185 61.5687 77.5558V82.1318H60.1607V73.5558H61.3127L61.4727 75.1238H61.5367C61.7181 74.8038 61.9367 74.5158 62.1927 74.2598C62.4487 73.9932 62.7421 73.7852 63.0727 73.6358C63.4034 73.4758 63.7661 73.3958 64.1607 73.3958ZM72.832 82.1318V81.3662H75.5351V71.9443C75.1601 72.2568 74.7383 72.4964 74.2695 72.6631C73.8112 72.8298 73.332 72.9131 72.832 72.9131V72.1475C73.4674 72.1475 74.0508 71.9548 74.582 71.5693C75.1133 71.1839 75.4935 70.6735 75.7226 70.0381H76.4883V81.3662H79.1758V82.1318H72.832Z" fill="black"/>
<path d="M59.4048 55.7692V50.0458C59.4048 47.0098 58.4594 44.0982 56.7765 41.9517C55.0938 39.8049 52.8113 38.5989 50.4313 38.5989H32.4843C30.1043 38.5989 27.8219 39.8049 26.139 41.9517C24.4562 44.0982 23.5107 47.0098 23.5107 50.0458V55.7692" fill="#25282B"/>
<path d="M41.4577 32.8756C46.4136 32.8756 50.4312 28.7756 50.4312 23.7181C50.4312 18.6605 46.4136 14.5605 41.4577 14.5605C36.5018 14.5605 32.4842 18.6605 32.4842 23.7181C32.4842 28.7756 36.5018 32.8756 41.4577 32.8756Z" fill="#25282B" stroke="#25282B" stroke-width="2" stroke-linecap="round" stroke-linejoin="round"/>
</svg>
