<svg width="186" height="90" viewBox="0 0 186 90" fill="none" xmlns="http://www.w3.org/2000/svg">
<g opacity="0.5">
<path d="M51.7876 14.5605H15.8935C13.4155 14.5605 11.4067 16.6104 11.4067 19.1392V42.033C11.4067 44.5618 13.4155 46.6117 15.8935 46.6117H51.7876C54.2655 46.6117 56.2743 44.5618 56.2743 42.033V19.1392C56.2743 16.6104 54.2655 14.5605 51.7876 14.5605Z" stroke="#25282B" stroke-width="2" stroke-linecap="round" stroke-linejoin="round"/>
<path d="M24.8672 55.7692H42.8142" stroke="#25282B" stroke-width="2" stroke-linecap="round" stroke-linejoin="round"/>
<path d="M33.8403 46.6117V55.7692" stroke="#25282B" stroke-width="2" stroke-linecap="round" stroke-linejoin="round"/>
<path d="M65.645 32.967C65.645 50.9077 51.396 65.4341 33.8403 65.4341C16.2846 65.4341 2.03564 50.9077 2.03564 32.967C2.03564 15.0264 16.2846 0.5 33.8403 0.5C51.396 0.5 65.645 15.0264 65.645 32.967Z" stroke="black"/>
<path d="M27.7296 70.7079C29.223 70.7079 30.311 71.0012 30.9936 71.5879C31.6763 72.1745 32.0176 73.0012 32.0176 74.0679C32.0176 74.5372 31.9376 74.9905 31.7776 75.4279C31.6283 75.8545 31.3776 76.2385 31.0256 76.5799C30.6736 76.9212 30.2043 77.1932 29.6176 77.3959C29.031 77.5879 28.311 77.6839 27.4576 77.6839H26.1456V82.1319H24.7056V70.7079H27.7296ZM27.6016 71.9399H26.1456V76.4519H27.2976C28.023 76.4519 28.6256 76.3772 29.1056 76.2279C29.5856 76.0679 29.943 75.8172 30.1776 75.4759C30.4123 75.1345 30.5296 74.6865 30.5296 74.1319C30.5296 73.3959 30.295 72.8465 29.8256 72.4839C29.3563 72.1212 28.615 71.9399 27.6016 71.9399ZM39.7891 71.8119C39.1811 71.8119 38.6318 71.9185 38.1411 72.1319C37.6505 72.3345 37.2345 72.6385 36.8931 73.0439C36.5518 73.4385 36.2905 73.9239 36.1091 74.4999C35.9278 75.0652 35.8371 75.7052 35.8371 76.4199C35.8371 77.3585 35.9811 78.1745 36.2691 78.8679C36.5678 79.5612 37.0051 80.0945 37.5811 80.4679C38.1678 80.8412 38.8985 81.0279 39.7731 81.0279C40.2745 81.0279 40.7491 80.9852 41.1971 80.8999C41.6451 80.8145 42.0825 80.7079 42.5091 80.5799V81.8279C42.0825 81.9879 41.6398 82.1052 41.1811 82.1799C40.7331 82.2545 40.1945 82.2919 39.5651 82.2919C38.4025 82.2919 37.4318 82.0519 36.6531 81.5719C35.8745 81.0919 35.2878 80.4092 34.8931 79.5239C34.5091 78.6385 34.3171 77.5985 34.3171 76.4039C34.3171 75.5399 34.4345 74.7505 34.6691 74.0359C34.9145 73.3212 35.2665 72.7025 35.7251 72.1799C36.1945 71.6572 36.7705 71.2572 37.4531 70.9799C38.1358 70.6919 38.9198 70.5479 39.8051 70.5479C40.3918 70.5479 40.9571 70.6065 41.5011 70.7239C42.0451 70.8412 42.5305 71.0065 42.9571 71.2199L42.3811 72.4359C42.0291 72.2759 41.6345 72.1319 41.1971 72.0039C40.7705 71.8759 40.3011 71.8119 39.7891 71.8119Z" fill="black"/>
</g>
<path d="M174.404 32.967C174.404 50.9077 160.155 65.4341 142.6 65.4341C125.044 65.4341 110.795 50.9077 110.795 32.967C110.795 15.0264 125.044 0.5 142.6 0.5C160.155 0.5 174.404 15.0264 174.404 32.967Z" stroke="black"/>
<path d="M104.269 85.1719C104.013 85.1719 103.789 85.1505 103.597 85.1079C103.405 85.0759 103.235 85.0279 103.085 84.9639V83.7479C103.256 83.7905 103.437 83.8279 103.629 83.8599C103.821 83.8919 104.024 83.9079 104.237 83.9079C104.504 83.9079 104.755 83.8545 104.989 83.7479C105.235 83.6412 105.432 83.4545 105.581 83.1879C105.731 82.9212 105.805 82.5479 105.805 82.0679V70.7079H107.245V81.9559C107.245 82.6919 107.123 83.2945 106.877 83.7639C106.632 84.2439 106.285 84.5959 105.837 84.8199C105.389 85.0545 104.867 85.1719 104.269 85.1719ZM117.736 73.5559V82.1319H116.584L116.376 80.9959H116.312C116.131 81.2945 115.896 81.5399 115.608 81.7319C115.32 81.9239 115.006 82.0625 114.664 82.1479C114.323 82.2439 113.966 82.2919 113.592 82.2919C112.91 82.2919 112.334 82.1852 111.864 81.9719C111.406 81.7479 111.059 81.4065 110.824 80.9479C110.59 80.4892 110.472 79.8972 110.472 79.1719V73.5559H111.896V79.0759C111.896 79.7585 112.051 80.2705 112.36 80.6119C112.67 80.9532 113.15 81.1239 113.8 81.1239C114.44 81.1239 114.942 81.0065 115.304 80.7719C115.678 80.5265 115.939 80.1745 116.088 79.7159C116.248 79.2465 116.328 78.6812 116.328 78.0199V73.5559H117.736ZM123.999 73.3959C124.564 73.3959 125.071 73.5025 125.519 73.7159C125.978 73.9292 126.367 74.2545 126.687 74.6919H126.767L126.959 73.5559H128.079V82.2759C128.079 83.0865 127.94 83.7639 127.663 84.3079C127.386 84.8625 126.964 85.2785 126.399 85.5559C125.834 85.8332 125.114 85.9719 124.239 85.9719C123.62 85.9719 123.05 85.9239 122.527 85.8279C122.015 85.7425 121.556 85.6092 121.151 85.4279V84.1319C121.428 84.2705 121.732 84.3879 122.063 84.4839C122.394 84.5905 122.751 84.6705 123.135 84.7239C123.519 84.7772 123.914 84.8039 124.319 84.8039C125.055 84.8039 125.631 84.5852 126.047 84.1479C126.474 83.7212 126.687 83.1345 126.687 82.3879V82.0519C126.687 81.9239 126.692 81.7425 126.703 81.5079C126.714 81.2625 126.724 81.0919 126.735 80.9959H126.671C126.372 81.4332 125.999 81.7585 125.551 81.9719C125.114 82.1852 124.602 82.2919 124.015 82.2919C122.906 82.2919 122.036 81.9025 121.407 81.1239C120.788 80.3452 120.479 79.2572 120.479 77.8599C120.479 76.9425 120.618 76.1532 120.895 75.4919C121.183 74.8199 121.588 74.3025 122.111 73.9399C122.634 73.5772 123.263 73.3959 123.999 73.3959ZM124.191 74.5799C123.711 74.5799 123.3 74.7079 122.959 74.9639C122.628 75.2199 122.372 75.5932 122.191 76.0839C122.02 76.5745 121.935 77.1719 121.935 77.8759C121.935 78.9319 122.127 79.7425 122.511 80.3079C122.906 80.8625 123.476 81.1399 124.223 81.1399C124.66 81.1399 125.034 81.0865 125.343 80.9799C125.652 80.8625 125.908 80.6865 126.111 80.4519C126.314 80.2065 126.463 79.8972 126.559 79.5239C126.655 79.1505 126.703 78.7079 126.703 78.1959V77.8599C126.703 77.0812 126.612 76.4519 126.431 75.9719C126.26 75.4919 125.988 75.1399 125.615 74.9159C125.242 74.6919 124.767 74.5799 124.191 74.5799ZM134.551 73.4119C135.596 73.4119 136.37 73.6412 136.871 74.0999C137.372 74.5585 137.623 75.2892 137.623 76.2919V82.1319H136.599L136.327 80.9159H136.263C136.018 81.2252 135.762 81.4865 135.495 81.6999C135.239 81.9025 134.94 82.0519 134.599 82.1479C134.268 82.2439 133.863 82.2919 133.383 82.2919C132.871 82.2919 132.407 82.2012 131.991 82.0199C131.586 81.8385 131.266 81.5612 131.031 81.1879C130.796 80.8039 130.679 80.3239 130.679 79.7479C130.679 78.8945 131.015 78.2385 131.687 77.7799C132.359 77.3105 133.394 77.0545 134.791 77.0119L136.247 76.9639V76.4519C136.247 75.7372 136.092 75.2412 135.783 74.9639C135.474 74.6865 135.036 74.5479 134.471 74.5479C134.023 74.5479 133.596 74.6172 133.191 74.7559C132.786 74.8839 132.407 75.0332 132.055 75.2039L131.623 74.1479C131.996 73.9452 132.439 73.7745 132.951 73.6359C133.463 73.4865 133.996 73.4119 134.551 73.4119ZM134.967 77.9879C133.9 78.0305 133.159 78.2012 132.743 78.4999C132.338 78.7985 132.135 79.2199 132.135 79.7639C132.135 80.2439 132.279 80.5959 132.567 80.8199C132.866 81.0439 133.244 81.1559 133.703 81.1559C134.428 81.1559 135.031 80.9585 135.511 80.5639C135.991 80.1585 136.231 79.5399 136.231 78.7079V77.9399L134.967 77.9879ZM143.812 82.2919C142.745 82.2919 141.892 81.9239 141.252 81.1879C140.612 80.4412 140.292 79.3319 140.292 77.8599C140.292 76.3879 140.612 75.2785 141.252 74.5319C141.902 73.7745 142.761 73.3959 143.828 73.3959C144.276 73.3959 144.665 73.4545 144.996 73.5719C145.326 73.6785 145.614 73.8279 145.86 74.0199C146.105 74.2119 146.313 74.4252 146.484 74.6599H146.58C146.569 74.5212 146.548 74.3185 146.516 74.0519C146.494 73.7745 146.484 73.5559 146.484 73.3959V69.9719H147.892V82.1319H146.756L146.548 80.9799H146.484C146.313 81.2252 146.105 81.4492 145.86 81.6519C145.614 81.8439 145.321 81.9985 144.98 82.1159C144.649 82.2332 144.26 82.2919 143.812 82.2919ZM144.036 81.1239C144.942 81.1239 145.577 80.8785 145.94 80.3879C146.313 79.8865 146.5 79.1345 146.5 78.1319V77.8759C146.5 76.8092 146.324 75.9932 145.972 75.4279C145.62 74.8519 144.969 74.5639 144.02 74.5639C143.262 74.5639 142.692 74.8679 142.308 75.4759C141.934 76.0732 141.748 76.8785 141.748 77.8919C141.748 78.9159 141.934 79.7105 142.308 80.2759C142.692 80.8412 143.268 81.1239 144.036 81.1239ZM158.571 77.8279C158.571 78.5425 158.475 79.1772 158.283 79.7319C158.102 80.2759 157.835 80.7399 157.483 81.1239C157.142 81.5079 156.721 81.8012 156.219 82.0039C155.729 82.1959 155.179 82.2919 154.571 82.2919C154.006 82.2919 153.483 82.1959 153.003 82.0039C152.523 81.8012 152.107 81.5079 151.755 81.1239C151.403 80.7399 151.126 80.2759 150.923 79.7319C150.731 79.1772 150.635 78.5425 150.635 77.8279C150.635 76.8785 150.795 76.0785 151.115 75.4279C151.435 74.7665 151.894 74.2652 152.491 73.9239C153.089 73.5719 153.798 73.3959 154.619 73.3959C155.398 73.3959 156.081 73.5719 156.667 73.9239C157.265 74.2652 157.729 74.7665 158.059 75.4279C158.401 76.0785 158.571 76.8785 158.571 77.8279ZM152.091 77.8279C152.091 78.4999 152.177 79.0865 152.347 79.5879C152.529 80.0785 152.806 80.4572 153.179 80.7239C153.553 80.9905 154.027 81.1239 154.603 81.1239C155.179 81.1239 155.654 80.9905 156.027 80.7239C156.401 80.4572 156.673 80.0785 156.843 79.5879C157.025 79.0865 157.115 78.4999 157.115 77.8279C157.115 77.1452 157.025 76.5639 156.843 76.0839C156.662 75.6039 156.385 75.2359 156.011 74.9799C155.649 74.7132 155.174 74.5799 154.587 74.5799C153.713 74.5799 153.078 74.8679 152.683 75.4439C152.289 76.0199 152.091 76.8145 152.091 77.8279ZM165.303 73.3959C165.463 73.3959 165.634 73.4065 165.815 73.4279C166.007 73.4385 166.172 73.4599 166.311 73.4919L166.135 74.7879C165.996 74.7559 165.842 74.7292 165.671 74.7079C165.511 74.6865 165.356 74.6759 165.207 74.6759C164.876 74.6759 164.562 74.7452 164.263 74.8839C163.964 75.0225 163.698 75.2199 163.463 75.4759C163.228 75.7212 163.042 76.0199 162.903 76.3719C162.775 76.7239 162.711 77.1185 162.711 77.5559V82.1319H161.303V73.5559H162.455L162.615 75.1239H162.679C162.86 74.8039 163.079 74.5159 163.335 74.2599C163.591 73.9932 163.884 73.7852 164.215 73.6359C164.546 73.4759 164.908 73.3959 165.303 73.3959ZM173.412 82.1319V81.3662C173.412 80.5954 173.735 79.7985 174.38 78.9756C175.037 78.1423 175.927 77.4027 177.052 76.7569C177.886 76.2673 178.542 75.6892 179.021 75.0225C179.5 74.3558 179.74 73.6839 179.74 73.0069C179.74 72.3402 179.474 71.7725 178.943 71.3037C178.422 70.835 177.792 70.6006 177.052 70.6006C176.313 70.6006 175.677 70.8871 175.146 71.46C174.625 72.0225 174.365 72.6996 174.365 73.4912C174.365 73.71 174.396 73.9339 174.458 74.1631C174.521 74.3923 174.62 74.6162 174.755 74.835L173.974 75.21C173.787 74.8767 173.646 74.5694 173.552 74.2881C173.458 73.9964 173.412 73.7308 173.412 73.4912C173.412 72.4808 173.766 71.6214 174.474 70.9131C175.182 70.1944 176.042 69.835 177.052 69.835C178.063 69.835 178.922 70.1475 179.63 70.7725C180.349 71.3871 180.708 72.1319 180.708 73.0069C180.708 73.8089 180.38 74.6319 179.724 75.4756C179.068 76.3194 178.177 77.0642 177.052 77.71C176.219 78.1996 175.563 78.7673 175.083 79.4131C174.604 80.0589 174.365 80.71 174.365 81.3662H180.896V82.1319H173.412Z" fill="black"/>
<path d="M160.547 55.7692V50.0458C160.547 47.0099 159.601 44.0982 157.919 41.9517C156.236 39.805 153.953 38.5989 151.573 38.5989H133.626C131.246 38.5989 128.964 39.805 127.281 41.9517C125.598 44.0982 124.653 47.0099 124.653 50.0458V55.7692" fill="#25282B"/>
<path d="M142.6 32.8755C147.556 32.8755 151.573 28.7755 151.573 23.718C151.573 18.6604 147.556 14.5605 142.6 14.5605C137.644 14.5605 133.626 18.6604 133.626 23.718C133.626 28.7755 137.644 32.8755 142.6 32.8755Z" fill="#25282B" stroke="#25282B" stroke-width="2" stroke-linecap="round" stroke-linejoin="round"/>
</svg>
