<svg width="300" height="57" viewBox="0 0 300 57" fill="none" xmlns="http://www.w3.org/2000/svg">
<rect x="25.5" y="8.5" width="40" height="40" rx="20" fill="#F2F2F2"/>
<g clip-path="url(#clip0_449_530)">
<path d="M54.446 24.805C54.4359 24.0476 54.2941 23.2977 54.027 22.589C53.7954 21.9911 53.4415 21.4482 52.9882 20.9948C52.5348 20.5414 51.9919 20.1876 51.394 19.956C50.6943 19.6933 49.9552 19.5513 49.208 19.536C48.246 19.493 47.941 19.481 45.499 19.481C43.057 19.481 42.744 19.481 41.789 19.536C41.0422 19.5514 40.3034 19.6934 39.604 19.956C39.0061 20.1874 38.463 20.5412 38.0096 20.9946C37.5562 21.448 37.2025 21.991 36.971 22.589C36.7078 23.2881 36.5661 24.0271 36.552 24.774C36.509 25.737 36.496 26.042 36.496 28.484C36.496 30.926 36.496 31.238 36.552 32.194C36.567 32.942 36.708 33.68 36.971 34.381C37.2029 34.9787 37.5569 35.5215 38.0104 35.9747C38.464 36.4279 39.0071 36.7815 39.605 37.013C40.3024 37.2862 41.0414 37.4383 41.79 37.463C42.753 37.506 43.058 37.519 45.5 37.519C47.942 37.519 48.255 37.519 49.21 37.463C49.9572 37.4482 50.6964 37.3066 51.396 37.044C51.9937 36.812 52.5365 36.4581 52.9898 36.0048C53.4432 35.5515 53.7971 35.0086 54.029 34.411C54.292 33.711 54.433 32.973 54.448 32.224C54.491 31.262 54.504 30.957 54.504 28.514C54.502 26.072 54.502 25.762 54.446 24.805ZM45.493 33.102C42.939 33.102 40.87 31.033 40.87 28.479C40.87 25.925 42.939 23.856 45.493 23.856C46.7191 23.856 47.895 24.343 48.762 25.21C49.6289 26.077 50.116 27.2529 50.116 28.479C50.116 29.7051 49.6289 30.8809 48.762 31.7479C47.895 32.6149 46.7191 33.102 45.493 33.102ZM50.3 24.763C50.1584 24.7631 50.0182 24.7353 49.8873 24.6812C49.7565 24.627 49.6376 24.5476 49.5374 24.4475C49.4373 24.3474 49.3579 24.2285 49.3038 24.0976C49.2497 23.9668 49.2219 23.8266 49.222 23.685C49.222 23.5435 49.2499 23.4033 49.304 23.2726C49.3582 23.1419 49.4375 23.0231 49.5376 22.923C49.6377 22.823 49.7564 22.7436 49.8872 22.6895C50.0179 22.6353 50.158 22.6075 50.2995 22.6075C50.441 22.6075 50.5811 22.6353 50.7118 22.6895C50.8426 22.7436 50.9614 22.823 51.0614 22.923C51.1615 23.0231 51.2408 23.1419 51.295 23.2726C51.3491 23.4033 51.377 23.5435 51.377 23.685C51.377 24.281 50.895 24.763 50.3 24.763Z" fill="black"/>
<path d="M45.493 31.482C47.1515 31.482 48.496 30.1375 48.496 28.479C48.496 26.8204 47.1515 25.476 45.493 25.476C43.8345 25.476 42.49 26.8204 42.49 28.479C42.49 30.1375 43.8345 31.482 45.493 31.482Z" fill="black"/>
</g>
<rect x="130" y="8.5" width="40" height="40" rx="20" fill="#F2F2F2"/>
<path d="M157.807 24.497C157.82 24.672 157.82 24.846 157.82 25.02C157.82 30.345 153.767 36.481 146.36 36.481C144.078 36.481 141.958 35.82 140.174 34.672C140.498 34.709 140.81 34.722 141.147 34.722C142.96 34.7264 144.722 34.1202 146.148 33.001C145.307 32.9858 144.493 32.7085 143.817 32.2078C143.142 31.7071 142.64 31.0079 142.381 30.208C142.63 30.245 142.88 30.27 143.142 30.27C143.503 30.27 143.866 30.22 144.203 30.133C143.291 29.9489 142.47 29.4544 141.882 28.7337C141.293 28.0131 140.972 27.1107 140.973 26.18V26.13C141.51 26.429 142.133 26.616 142.793 26.641C142.24 26.2736 141.787 25.7751 141.473 25.1898C141.16 24.6046 140.996 23.9509 140.997 23.287C140.997 22.539 141.196 21.853 141.545 21.255C142.557 22.5001 143.82 23.5186 145.25 24.2447C146.681 24.9708 148.249 25.3883 149.851 25.47C149.789 25.17 149.751 24.859 149.751 24.547C149.751 24.018 149.855 23.4941 150.057 23.0053C150.259 22.5165 150.556 22.0723 150.93 21.6982C151.304 21.3241 151.748 21.0275 152.237 20.8251C152.726 20.6228 153.25 20.5188 153.779 20.519C154.939 20.519 155.986 21.005 156.722 21.791C157.624 21.6167 158.489 21.2875 159.278 20.818C158.977 21.7489 158.348 22.5381 157.507 23.038C158.307 22.9468 159.088 22.7365 159.826 22.414C159.275 23.2171 158.593 23.9214 157.807 24.497Z" fill="black"/>
<rect x="234.5" y="8.5" width="40" height="40" rx="20" fill="#F2F2F2"/>
<path d="M262.5 19.5H246.5C246.235 19.5 245.98 19.6054 245.793 19.7929C245.605 19.9804 245.5 20.2348 245.5 20.5V36.5C245.5 36.7652 245.605 37.0196 245.793 37.2071C245.98 37.3946 246.235 37.5 246.5 37.5H255.115V30.54H252.777V27.815H255.115V25.815C255.115 23.49 256.535 22.223 258.615 22.223C259.314 22.221 260.014 22.257 260.71 22.33V24.75H259.275C258.147 24.75 257.927 25.288 257.927 26.075V27.81H260.624L260.274 30.535H257.926V37.5H262.5C262.765 37.5 263.02 37.3946 263.207 37.2071C263.395 37.0196 263.5 36.7652 263.5 36.5V20.5C263.5 20.2348 263.395 19.9804 263.207 19.7929C263.02 19.6054 262.765 19.5 262.5 19.5Z" fill="black"/>
<defs>
<clipPath id="clip0_449_530">
<rect width="18.008" height="18.038" fill="white" transform="translate(36.496 19.481)"/>
</clipPath>
</defs>
</svg>
