<svg width="40" height="40" viewBox="0 0 40 40" fill="none" xmlns="http://www.w3.org/2000/svg">
<path d="M30.8571 32V28.4286C30.8571 26.5341 30.2551 24.7173 29.1834 23.3778C28.1119 22.0383 26.6584 21.2857 25.1429 21.2857H13.7143C12.1988 21.2857 10.7453 22.0383 9.67368 23.3778C8.60203 24.7173 8 26.5341 8 28.4286V32" fill="white"/>
<path d="M19.4286 17.7143C22.5845 17.7143 25.1429 15.1559 25.1429 12C25.1429 8.84408 22.5845 6.28571 19.4286 6.28571C16.2728 6.28571 13.7144 8.84408 13.7144 12C13.7144 15.1559 16.2728 17.7143 19.4286 17.7143Z" fill="white" stroke="white" stroke-width="2" stroke-linecap="round" stroke-linejoin="round"/>
<circle cx="20" cy="20" r="19" stroke="white" stroke-width="2"/>
</svg>
