<svg width="40" height="40" viewBox="0 0 40 40" fill="none" xmlns="http://www.w3.org/2000/svg">
<circle cx="20" cy="20" r="18.5" stroke="black" stroke-width="3"/>
<path d="M18.2812 27.625C18.2812 27.1875 18.4271 26.8229 18.7188 26.5312C19.0104 26.2396 19.375 26.0938 19.8125 26.0938C20.25 26.0938 20.6146 26.2396 20.9062 26.5312C21.1979 26.8229 21.3438 27.1875 21.3438 27.625C21.3438 28.0625 21.1979 28.4271 20.9062 28.7188C20.6146 29.0104 20.25 29.1562 19.8125 29.1562C19.375 29.1562 19.0104 29.0104 18.7188 28.7188C18.4271 28.4271 18.2812 28.0625 18.2812 27.625ZM13.2812 13.7812C13.2812 11.8646 13.9167 10.2396 15.1875 8.90625C16.4792 7.55208 18.0208 6.875 19.8125 6.875C21.7292 6.875 23.3542 7.55208 24.6875 8.90625C26.0417 10.2396 26.7188 11.8646 26.7188 13.7812C26.7188 15.1354 26.4062 16.3438 25.7812 17.4062C25.1562 18.4479 24.3229 19.1667 23.2812 19.5625C22.5312 19.8542 21.9271 20.3854 21.4688 21.1562C21.0104 21.9062 20.7812 22.7812 20.7812 23.7812V24.9375H18.8438V23.7812C18.8438 22.4688 19.1042 21.3229 19.625 20.3438C20.1667 19.3438 20.875 18.6979 21.75 18.4062C22.6667 18.0729 23.4062 17.4896 23.9688 16.6562C24.5312 15.8021 24.8125 14.8438 24.8125 13.7812C24.8125 12.3021 24.3229 11.0417 23.3438 10C22.3854 8.9375 21.2083 8.40625 19.8125 8.40625C18.5417 8.40625 17.4583 8.9375 16.5625 10C15.6667 11.0417 15.2188 12.3021 15.2188 13.7812H13.2812Z" fill="black"/>
</svg>
