<svg width="791" height="536" viewBox="0 0 791 536" fill="none" xmlns="http://www.w3.org/2000/svg">
<rect x="0.5" y="0.5" width="790" height="535" fill="#985F09"/>
<path d="M95.9287 50.4725C95.9287 71.3211 79.7118 88.1868 59.7501 88.1868C39.7884 88.1868 23.5715 71.3211 23.5715 50.4725C23.5715 29.624 39.7884 12.7582 59.7501 12.7582C79.7118 12.7582 95.9287 29.624 95.9287 50.4725Z" fill="#D9D9D9" stroke="black"/>
<path d="M95.9287 137.483C95.9287 158.332 79.7118 175.198 59.7501 175.198C39.7884 175.198 23.5715 158.332 23.5715 137.483C23.5715 116.635 39.7884 99.7692 59.7501 99.7692C79.7118 99.7692 95.9287 116.635 95.9287 137.483Z" fill="#D9D9D9" stroke="black"/>
<path d="M95.9287 398.516C95.9287 419.365 79.7118 436.231 59.7501 436.231C39.7884 436.231 23.5715 419.365 23.5715 398.516C23.5715 377.668 39.7884 360.802 59.7501 360.802C79.7118 360.802 95.9287 377.668 95.9287 398.516Z" fill="#D9D9D9" stroke="black"/>
<path d="M95.9287 485.527C95.9287 506.376 79.7118 523.242 59.7501 523.242C39.7884 523.242 23.5715 506.376 23.5715 485.527C23.5715 464.679 39.7884 447.813 59.7501 447.813C79.7118 447.813 95.9287 464.679 95.9287 485.527Z" fill="#D9D9D9" stroke="black"/>
<path d="M95.9287 224.494C95.9287 245.343 79.7118 262.209 59.7501 262.209C39.7884 262.209 23.5715 245.343 23.5715 224.494C23.5715 203.646 39.7884 186.78 59.7501 186.78C79.7118 186.78 95.9287 203.646 95.9287 224.494Z" fill="#D9D9D9" stroke="black"/>
<path d="M95.9287 311.505C95.9287 332.354 79.7118 349.22 59.7501 349.22C39.7884 349.22 23.5715 332.354 23.5715 311.505C23.5715 290.657 39.7884 273.791 59.7501 273.791C79.7118 273.791 95.9287 290.657 95.9287 311.505Z" fill="#D9D9D9" stroke="black"/>
<path d="M191.857 50.4725C191.857 71.3211 175.64 88.1868 155.679 88.1868C135.717 88.1868 119.5 71.3211 119.5 50.4725C119.5 29.624 135.717 12.7582 155.679 12.7582C175.64 12.7582 191.857 29.624 191.857 50.4725Z" fill="#D9D9D9" stroke="black"/>
<path d="M191.857 137.483C191.857 158.332 175.64 175.198 155.679 175.198C135.717 175.198 119.5 158.332 119.5 137.483C119.5 116.635 135.717 99.7692 155.679 99.7692C175.64 99.7692 191.857 116.635 191.857 137.483Z" fill="#D9D9D9" stroke="black"/>
<path d="M191.857 398.516C191.857 419.365 175.64 436.231 155.679 436.231C135.717 436.231 119.5 419.365 119.5 398.516C119.5 377.668 135.717 360.802 155.679 360.802C175.64 360.802 191.857 377.668 191.857 398.516Z" fill="#D9D9D9" stroke="black"/>
<path d="M191.857 485.527C191.857 506.376 175.64 523.242 155.679 523.242C135.717 523.242 119.5 506.376 119.5 485.527C119.5 464.679 135.717 447.813 155.679 447.813C175.64 447.813 191.857 464.679 191.857 485.527Z" fill="#D9D9D9" stroke="black"/>
<path d="M191.857 224.494C191.857 245.343 175.64 262.209 155.679 262.209C135.717 262.209 119.5 245.343 119.5 224.494C119.5 203.646 135.717 186.78 155.679 186.78C175.64 186.78 191.857 203.646 191.857 224.494Z" fill="#D9D9D9" stroke="black"/>
<path d="M191.857 311.505C191.857 332.354 175.64 349.22 155.679 349.22C135.717 349.22 119.5 332.354 119.5 311.505C119.5 290.657 135.717 273.791 155.679 273.791C175.64 273.791 191.857 290.657 191.857 311.505Z" fill="#D9D9D9" stroke="black"/>
<path d="M287.786 50.4725C287.786 71.3211 271.569 88.1868 251.607 88.1868C231.645 88.1868 215.428 71.3211 215.428 50.4725C215.428 29.624 231.645 12.7582 251.607 12.7582C271.569 12.7582 287.786 29.624 287.786 50.4725Z" fill="#D9D9D9" stroke="black"/>
<path d="M287.786 137.483C287.786 158.332 271.569 175.198 251.607 175.198C231.645 175.198 215.428 158.332 215.428 137.483C215.428 116.635 231.645 99.7692 251.607 99.7692C271.569 99.7692 287.786 116.635 287.786 137.483Z" fill="#D9D9D9" stroke="black"/>
<path d="M287.786 398.516C287.786 419.365 271.569 436.231 251.607 436.231C231.645 436.231 215.428 419.365 215.428 398.516C215.428 377.668 231.645 360.802 251.607 360.802C271.569 360.802 287.786 377.668 287.786 398.516Z" fill="#D9D9D9" stroke="black"/>
<path d="M287.786 485.527C287.786 506.376 271.569 523.242 251.607 523.242C231.645 523.242 215.428 506.376 215.428 485.527C215.428 464.679 231.645 447.813 251.607 447.813C271.569 447.813 287.786 464.679 287.786 485.527Z" fill="#D9D9D9" stroke="black"/>
<path d="M287.786 224.494C287.786 245.343 271.569 262.209 251.607 262.209C231.645 262.209 215.428 245.343 215.428 224.494C215.428 203.646 231.645 186.78 251.607 186.78C271.569 186.78 287.786 203.646 287.786 224.494Z" fill="#D9D9D9" stroke="black"/>
<path d="M287.786 311.505C287.786 332.354 271.569 349.22 251.607 349.22C231.645 349.22 215.428 332.354 215.428 311.505C215.428 290.657 231.645 273.791 251.607 273.791C271.569 273.791 287.786 290.657 287.786 311.505Z" fill="#D9D9D9" stroke="black"/>
<path d="M383.714 50.4725C383.714 71.3211 367.497 88.1868 347.536 88.1868C327.574 88.1868 311.357 71.3211 311.357 50.4725C311.357 29.624 327.574 12.7582 347.536 12.7582C367.497 12.7582 383.714 29.624 383.714 50.4725Z" fill="#D9D9D9" stroke="black"/>
<path d="M383.714 137.483C383.714 158.332 367.497 175.198 347.536 175.198C327.574 175.198 311.357 158.332 311.357 137.483C311.357 116.635 327.574 99.7692 347.536 99.7692C367.497 99.7692 383.714 116.635 383.714 137.483Z" fill="#D9D9D9" stroke="black"/>
<path d="M383.714 398.516C383.714 419.365 367.497 436.231 347.536 436.231C327.574 436.231 311.357 419.365 311.357 398.516C311.357 377.668 327.574 360.802 347.536 360.802C367.497 360.802 383.714 377.668 383.714 398.516Z" fill="#D9D9D9" stroke="black"/>
<path d="M383.714 485.527C383.714 506.376 367.497 523.242 347.536 523.242C327.574 523.242 311.357 506.376 311.357 485.527C311.357 464.679 327.574 447.813 347.536 447.813C367.497 447.813 383.714 464.679 383.714 485.527Z" fill="#D9D9D9" stroke="black"/>
<path d="M383.714 224.494C383.714 245.343 367.497 262.209 347.536 262.209C327.574 262.209 311.357 245.343 311.357 224.494C311.357 203.646 327.574 186.78 347.536 186.78C367.497 186.78 383.714 203.646 383.714 224.494Z" fill="#D9D9D9" stroke="black"/>
<path d="M383.714 311.505C383.714 332.354 367.497 349.22 347.536 349.22C327.574 349.22 311.357 332.354 311.357 311.505C311.357 290.657 327.574 273.791 347.536 273.791C367.497 273.791 383.714 290.657 383.714 311.505Z" fill="#D9D9D9" stroke="black"/>
<path d="M479.643 50.4725C479.643 71.3211 463.426 88.1868 443.464 88.1868C423.502 88.1868 407.286 71.3211 407.286 50.4725C407.286 29.624 423.502 12.7582 443.464 12.7582C463.426 12.7582 479.643 29.624 479.643 50.4725Z" fill="#D9D9D9" stroke="black"/>
<path d="M479.643 137.483C479.643 158.332 463.426 175.198 443.464 175.198C423.502 175.198 407.286 158.332 407.286 137.483C407.286 116.635 423.502 99.7692 443.464 99.7692C463.426 99.7692 479.643 116.635 479.643 137.483Z" fill="#D9D9D9" stroke="black"/>
<path d="M479.643 398.516C479.643 419.365 463.426 436.231 443.464 436.231C423.502 436.231 407.286 419.365 407.286 398.516C407.286 377.668 423.502 360.802 443.464 360.802C463.426 360.802 479.643 377.668 479.643 398.516Z" fill="#D9D9D9" stroke="black"/>
<path d="M479.643 485.527C479.643 506.376 463.426 523.242 443.464 523.242C423.502 523.242 407.286 506.376 407.286 485.527C407.286 464.679 423.502 447.813 443.464 447.813C463.426 447.813 479.643 464.679 479.643 485.527Z" fill="#D9D9D9" stroke="black"/>
<path d="M479.643 224.494C479.643 245.343 463.426 262.209 443.464 262.209C423.502 262.209 407.286 245.343 407.286 224.494C407.286 203.646 423.502 186.78 443.464 186.78C463.426 186.78 479.643 203.646 479.643 224.494Z" fill="#D9D9D9" stroke="black"/>
<path d="M479.643 311.505C479.643 332.354 463.426 349.22 443.464 349.22C423.502 349.22 407.286 332.354 407.286 311.505C407.286 290.657 423.502 273.791 443.464 273.791C463.426 273.791 479.643 290.657 479.643 311.505Z" fill="#D9D9D9" stroke="black"/>
<path d="M575.571 50.4725C575.571 71.3211 559.355 88.1868 539.393 88.1868C519.431 88.1868 503.214 71.3211 503.214 50.4725C503.214 29.624 519.431 12.7582 539.393 12.7582C559.355 12.7582 575.571 29.624 575.571 50.4725Z" fill="#D9D9D9" stroke="black"/>
<path d="M575.571 137.483C575.571 158.332 559.355 175.198 539.393 175.198C519.431 175.198 503.214 158.332 503.214 137.483C503.214 116.635 519.431 99.7692 539.393 99.7692C559.355 99.7692 575.571 116.635 575.571 137.483Z" fill="#D9D9D9" stroke="black"/>
<path d="M575.571 398.516C575.571 419.365 559.355 436.231 539.393 436.231C519.431 436.231 503.214 419.365 503.214 398.516C503.214 377.668 519.431 360.802 539.393 360.802C559.355 360.802 575.571 377.668 575.571 398.516Z" fill="#D9D9D9" stroke="black"/>
<path d="M575.571 485.527C575.571 506.376 559.355 523.242 539.393 523.242C519.431 523.242 503.214 506.376 503.214 485.527C503.214 464.679 519.431 447.813 539.393 447.813C559.355 447.813 575.571 464.679 575.571 485.527Z" fill="#D9D9D9" stroke="black"/>
<path d="M575.571 224.494C575.571 245.343 559.355 262.209 539.393 262.209C519.431 262.209 503.214 245.343 503.214 224.494C503.214 203.646 519.431 186.78 539.393 186.78C559.355 186.78 575.571 203.646 575.571 224.494Z" fill="#D9D9D9" stroke="black"/>
<path d="M575.571 311.505C575.571 332.354 559.355 349.22 539.393 349.22C519.431 349.22 503.214 332.354 503.214 311.505C503.214 290.657 519.431 273.791 539.393 273.791C559.355 273.791 575.571 290.657 575.571 311.505Z" fill="#D9D9D9" stroke="black"/>
<path d="M671.5 50.4725C671.5 71.3211 655.283 88.1868 635.322 88.1868C615.36 88.1868 599.143 71.3211 599.143 50.4725C599.143 29.624 615.36 12.7582 635.322 12.7582C655.283 12.7582 671.5 29.624 671.5 50.4725Z" fill="#D9D9D9" stroke="black"/>
<path d="M671.5 137.483C671.5 158.332 655.283 175.198 635.322 175.198C615.36 175.198 599.143 158.332 599.143 137.483C599.143 116.635 615.36 99.7692 635.322 99.7692C655.283 99.7692 671.5 116.635 671.5 137.483Z" fill="#D9D9D9" stroke="black"/>
<path d="M671.5 398.516C671.5 419.365 655.283 436.231 635.322 436.231C615.36 436.231 599.143 419.365 599.143 398.516C599.143 377.668 615.36 360.802 635.322 360.802C655.283 360.802 671.5 377.668 671.5 398.516Z" fill="#D9D9D9" stroke="black"/>
<path d="M671.5 485.527C671.5 506.376 655.283 523.242 635.322 523.242C615.36 523.242 599.143 506.376 599.143 485.527C599.143 464.679 615.36 447.813 635.322 447.813C655.283 447.813 671.5 464.679 671.5 485.527Z" fill="#D9D9D9" stroke="black"/>
<path d="M671.5 224.494C671.5 245.343 655.283 262.209 635.322 262.209C615.36 262.209 599.143 245.343 599.143 224.494C599.143 203.646 615.36 186.78 635.322 186.78C655.283 186.78 671.5 203.646 671.5 224.494Z" fill="#D9D9D9" stroke="black"/>
<path d="M671.5 311.505C671.5 332.354 655.283 349.22 635.322 349.22C615.36 349.22 599.143 332.354 599.143 311.505C599.143 290.657 615.36 273.791 635.322 273.791C655.283 273.791 671.5 290.657 671.5 311.505Z" fill="#D9D9D9" stroke="black"/>
<path d="M767.428 50.4725C767.428 71.3211 751.212 88.1868 731.25 88.1868C711.288 88.1868 695.071 71.3211 695.071 50.4725C695.071 29.624 711.288 12.7582 731.25 12.7582C751.212 12.7582 767.428 29.624 767.428 50.4725Z" fill="#D9D9D9" stroke="black"/>
<path d="M767.428 137.483C767.428 158.332 751.212 175.198 731.25 175.198C711.288 175.198 695.071 158.332 695.071 137.483C695.071 116.635 711.288 99.7692 731.25 99.7692C751.212 99.7692 767.428 116.635 767.428 137.483Z" fill="#D9D9D9" stroke="black"/>
<path d="M767.428 398.516C767.428 419.365 751.212 436.231 731.25 436.231C711.288 436.231 695.071 419.365 695.071 398.516C695.071 377.668 711.288 360.802 731.25 360.802C751.212 360.802 767.428 377.668 767.428 398.516Z" fill="#D9D9D9" stroke="black"/>
<path d="M767.428 485.527C767.428 506.376 751.212 523.242 731.25 523.242C711.288 523.242 695.071 506.376 695.071 485.527C695.071 464.679 711.288 447.813 731.25 447.813C751.212 447.813 767.428 464.679 767.428 485.527Z" fill="#D9D9D9" stroke="black"/>
<path d="M767.428 224.494C767.428 245.343 751.212 262.209 731.25 262.209C711.288 262.209 695.071 245.343 695.071 224.494C695.071 203.646 711.288 186.78 731.25 186.78C751.212 186.78 767.428 203.646 767.428 224.494Z" fill="#D9D9D9" stroke="black"/>
<path d="M767.428 311.505C767.428 332.354 751.212 349.22 731.25 349.22C711.288 349.22 695.071 332.354 695.071 311.505C695.071 290.657 711.288 273.791 731.25 273.791C751.212 273.791 767.428 290.657 767.428 311.505Z" fill="#D9D9D9" stroke="black"/>
</svg>
